<svg width="911" height="158" viewBox="0 0 911 158" fill="none" xmlns="http://www.w3.org/2000/svg">
<path d="M0.300001 3.99999H30.22V68.46H95.34V3.99999H125.26V158H95.34V93.98H30.22V158H0.300001V3.99999ZM149.513 137.76V112.68L169.753 92.44H225.413V78.58L218.593 71.76H185.593L178.993 78.58V84.74H150.393V72.2L173.933 48.44H230.473L254.013 72.2V158H227.833V142.38L211.553 158H169.753L149.513 137.76ZM209.573 135.56L225.413 120.38V113.12H184.053L178.113 119.06V130.06L183.613 135.56H209.573ZM273.856 136.44V123.02H302.456V129.18L307.296 134.24H342.936L347.776 129.18V119.72L342.716 114.44H295.416L274.736 93.54V69.56L295.636 48.44H352.836L374.176 70V83.42H345.576V77.26L340.736 72.2H308.176L303.336 77.26V85.84L308.396 91.12H355.696L376.376 112.02V136.88L355.476 158H295.196L273.856 136.44ZM397.305 0.91999H426.345V65.38L443.285 48.44H478.265L502.685 72.86V158H473.645V80.78L466.165 73.08H447.245L426.345 94.2V158H397.305V0.91999ZM529.03 3.99999H558.95V132.7H635.95V158H529.03V3.99999ZM652.351 3.99999H763.671V29.3H682.271V68.24H757.291V93.1H682.271V132.7H763.671V158H652.351V3.99999ZM826.249 95.08L771.469 3.99999H804.249L840.989 67.14H841.429L878.169 3.99999H910.949L856.169 95.08V158H826.249V95.08Z" fill="black"/>
</svg>
